<?xml version="1.0" standalone="no"?>
<!DOCTYPE svg PUBLIC "-//W3C//DTD SVG 20010904//EN"
 "http://www.w3.org/TR/2001/REC-SVG-20010904/DTD/svg10.dtd">
<svg version="1.0" xmlns="http://www.w3.org/2000/svg"
 width="360.000000pt" height="140.000000pt" viewBox="0 0 360.000000 140.000000"
 preserveAspectRatio="xMidYMid meet">

<g transform="translate(0.000000,140.000000) scale(0.100000,-0.100000)"
fill="#000000" stroke="none">
<path d="M2241 1168 c11 -29 21 -56 22 -59 2 -8 -189 -256 -204 -265 -6 -3
-128 -17 -272 -31 -280 -26 -506 -27 -580 -2 -34 11 -37 15 -32 41 6 26 4 28
-23 28 -17 0 -32 -5 -34 -12 -4 -12 -112 79 -252 210 -75 72 -80 74 -118 69
-22 -3 -42 -8 -45 -11 -3 -3 48 -100 112 -216 83 -148 115 -214 106 -219 -6
-4 -9 -14 -6 -23 5 -12 -33 -25 -202 -67 -114 -29 -214 -58 -220 -63 -19 -15
-8 -25 34 -31 26 -5 94 8 239 43 l203 49 123 -43 c151 -53 203 -65 341 -74
l108 -7 -363 -117 -362 -118 -38 30 c-29 24 -47 30 -85 30 l-47 0 64 -65 c64
-64 65 -65 120 -65 41 0 163 33 489 130 329 98 438 127 448 119 9 -8 13 -8 13
0 0 6 7 11 16 11 10 0 14 -6 10 -15 -3 -8 6 -27 20 -42 25 -27 31 -28 129 -31
119 -4 165 10 185 58 15 36 5 86 -21 104 -19 13 -17 14 23 20 24 3 179 17 346
31 342 28 420 38 480 59 54 19 128 70 143 98 10 19 8 25 -19 48 -53 44 -154
89 -244 107 -82 16 -100 16 -315 1 -125 -9 -230 -14 -232 -12 -2 2 15 56 38
120 l41 116 -42 59 c-39 53 -46 58 -80 59 l-38 0 21 -52z m55 25 c8 -10 25
-35 40 -55 l26 -38 -37 -110 c-21 -61 -43 -114 -49 -119 -6 -5 -51 -12 -100
-16 -74 -6 -87 -5 -80 6 4 8 48 65 97 127 l89 113 -18 47 c-11 26 -20 50 -22
54 -7 16 41 7 54 -9z m-1414 -149 c139 -129 244 -213 295 -236 24 -10 87 -23
148 -28 113 -11 129 -10 625 35 690 63 793 69 888 49 81 -16 142 -40 142 -55
0 -15 -78 -49 -115 -49 -55 0 -41 18 25 31 33 6 63 16 66 21 4 6 -1 8 -12 5
-11 -3 -44 -11 -75 -17 -49 -9 -56 -14 -52 -30 8 -30 82 -27 143 6 l47 26 42
-22 c73 -37 65 -64 -39 -119 -73 -39 -155 -52 -561 -86 -349 -29 -326 -28
-311 -13 19 19 -6 38 -49 38 -51 0 -376 -55 -414 -70 -52 -21 -193 -30 -305
-19 -76 7 -138 21 -225 51 -155 52 -161 55 -107 64 23 3 42 10 42 14 0 11 -73
30 -114 30 -35 0 -50 15 -22 22 10 2 -22 66 -105 213 -65 116 -119 213 -119
217 0 6 22 14 47 17 6 0 58 -42 115 -95z m278 -195 c0 -18 -2 -19 -15 -9 -8 7
-15 16 -15 21 0 5 7 9 15 9 9 0 15 -9 15 -21z m-135 -198 l20 -8 -20 -6 c-11
-3 -114 -29 -229 -57 -187 -45 -312 -63 -292 -42 11 11 437 120 471 121 17 0
39 -4 50 -8z m1084 -70 c17 -11 -12 -22 -319 -115 -601 -183 -925 -276 -963
-276 -36 0 -48 6 -89 47 -26 26 -48 51 -48 55 0 19 44 6 80 -23 27 -22 46 -30
62 -27 13 3 219 69 458 147 434 142 506 160 765 194 17 2 32 5 35 5 3 1 11 -2
19 -7z m-47 -84 c-25 -26 -28 -54 -10 -92 13 -28 21 -31 36 -12 13 15 19 88 8
105 -10 17 9 15 23 -2 21 -26 16 -75 -11 -102 -22 -23 -32 -25 -137 -27 -102
-2 -114 0 -127 18 -8 11 -14 33 -12 49 2 24 10 32 43 43 50 18 152 41 184 42
l24 1 -21 -23z"/>
<path d="M2510 717 c0 -19 10 -27 26 -20 21 8 17 33 -6 33 -11 0 -20 -6 -20
-13z"/>
<path d="M2580 716 c0 -10 9 -16 21 -16 24 0 21 23 -4 28 -10 2 -17 -3 -17
-12z"/>
<path d="M2380 700 c0 -11 7 -20 15 -20 8 0 15 9 15 20 0 11 -7 20 -15 20 -8
0 -15 -9 -15 -20z"/>
<path d="M2450 705 c0 -8 7 -15 15 -15 8 0 15 7 15 15 0 8 -7 15 -15 15 -8 0
-15 -7 -15 -15z"/>
<path d="M2250 690 c0 -11 7 -20 15 -20 8 0 15 9 15 20 0 11 -7 20 -15 20 -8
0 -15 -9 -15 -20z"/>
<path d="M2310 695 c0 -8 9 -15 20 -15 11 0 20 7 20 15 0 8 -9 15 -20 15 -11
0 -20 -7 -20 -15z"/>
<path d="M2112 683 c2 -10 10 -18 18 -18 22 0 18 29 -3 33 -14 3 -18 -1 -15
-15z"/>
<path d="M2180 685 c0 -8 7 -15 15 -15 8 0 15 7 15 15 0 8 -7 15 -15 15 -8 0
-15 -7 -15 -15z"/>
<path d="M1980 670 c0 -11 7 -20 15 -20 8 0 15 9 15 20 0 11 -7 20 -15 20 -8
0 -15 -9 -15 -20z"/>
<path d="M2050 675 c0 -8 7 -15 15 -15 8 0 15 7 15 15 0 8 -7 15 -15 15 -8 0
-15 -7 -15 -15z"/>
<path d="M1850 660 c0 -11 7 -20 15 -20 8 0 15 9 15 20 0 11 -7 20 -15 20 -8
0 -15 -9 -15 -20z"/>
<path d="M1910 666 c0 -10 9 -16 21 -16 24 0 21 23 -4 28 -10 2 -17 -3 -17
-12z"/>
<path d="M1713 655 c-7 -20 2 -29 21 -22 9 4 13 13 10 22 -8 19 -23 19 -31 0z"/>
<path d="M1780 655 c0 -8 7 -15 15 -15 8 0 15 7 15 15 0 8 -7 15 -15 15 -8 0
-15 -7 -15 -15z"/>
<path d="M1587 653 c-13 -12 -7 -33 8 -33 8 0 15 9 15 20 0 20 -11 26 -23 13z"/>
<path d="M1642 648 c7 -19 38 -22 38 -4 0 10 -9 16 -21 16 -12 0 -19 -5 -17
-12z"/>
<path d="M1453 643 c-16 -6 -5 -33 13 -33 8 0 14 6 14 14 0 18 -11 25 -27 19z"/>
<path d="M1510 635 c0 -8 7 -15 15 -15 8 0 15 7 15 15 0 8 -7 15 -15 15 -8 0
-15 -7 -15 -15z"/>
<path d="M1323 633 c-18 -7 -16 -33 2 -33 8 0 15 9 15 20 0 11 -1 20 -2 19 -2
0 -9 -3 -15 -6z"/>
<path d="M1380 625 c0 -8 7 -15 15 -15 8 0 15 7 15 15 0 8 -7 15 -15 15 -8 0
-15 -7 -15 -15z"/>
<path d="M1240 615 c0 -8 9 -15 20 -15 11 0 20 7 20 15 0 8 -9 15 -20 15 -11
0 -20 -7 -20 -15z"/>
</g>
</svg>
